<svg width="39" height="39" viewBox="0 0 39 39" fill="none" xmlns="http://www.w3.org/2000/svg">
    <path d="M19.3745 38.5882C30.0748 38.5882 38.7491 29.95 38.7491 19.2941C38.7491 8.63827 30.0748 0 19.3745 0C8.67427 0 0 8.63827 0 19.2941C0 29.95 8.67427 38.5882 19.3745 38.5882Z" fill="#FF4500"/>
    <path d="M32.2913 19.2942C32.2913 17.7371 31.0223 16.4734 29.4587 16.4734C28.6883 16.4734 28.0085 16.7668 27.51 17.2632C25.5838 15.8867 22.9099 14.984 19.9641 14.8712L21.2557 8.84602L25.4479 9.7261C25.4932 10.7867 26.3769 11.6442 27.4646 11.6442C28.575 11.6442 29.4814 10.7416 29.4814 9.63584C29.4814 8.53009 28.575 7.62744 27.4646 7.62744C26.6715 7.62744 25.9917 8.07877 25.6745 8.75575L20.9838 7.76284C20.8478 7.74027 20.7119 7.76284 20.5986 7.83054C20.4853 7.89824 20.4173 8.01107 20.372 8.14647L18.9444 14.8712C15.9306 14.9615 13.234 15.8415 11.2852 17.2632C10.7867 16.7893 10.0842 16.4734 9.33644 16.4734C7.77288 16.4734 6.50391 17.7371 6.50391 19.2942C6.50391 20.4451 7.18371 21.4154 8.18077 21.8667C8.13544 22.1375 8.11278 22.4309 8.11278 22.7243C8.11278 27.057 13.166 30.5547 19.4203 30.5547C25.6745 30.5547 30.7277 27.057 30.7277 22.7243C30.7277 22.4309 30.7051 22.1601 30.6597 21.8893C31.5888 21.438 32.2913 20.4451 32.2913 19.2942ZM12.9168 21.3026C12.9168 20.1968 13.8232 19.2942 14.9335 19.2942C16.0439 19.2942 16.9503 20.1968 16.9503 21.3026C16.9503 22.4083 16.0439 23.311 14.9335 23.311C13.8232 23.311 12.9168 22.4083 12.9168 21.3026ZM24.1789 26.6056C22.7966 27.9822 20.168 28.0724 19.3976 28.0724C18.6271 28.0724 15.9759 27.9596 14.6163 26.6056C14.4123 26.4025 14.4123 26.0641 14.6163 25.861C14.8202 25.6579 15.1601 25.6579 15.3641 25.861C16.2252 26.7185 18.0833 27.0344 19.4203 27.0344C20.7572 27.0344 22.5927 26.7185 23.4764 25.861C23.6804 25.6579 24.0203 25.6579 24.2242 25.861C24.3828 26.0866 24.3828 26.4025 24.1789 26.6056ZM23.8163 23.311C22.706 23.311 21.7996 22.4083 21.7996 21.3026C21.7996 20.1968 22.706 19.2942 23.8163 19.2942C24.9267 19.2942 25.8331 20.1968 25.8331 21.3026C25.8331 22.4083 24.9267 23.311 23.8163 23.311Z" fill="white"/>
</svg>
