<svg width="39" height="39" viewBox="0 0 39 39" fill="none" xmlns="http://www.w3.org/2000/svg">
    <ellipse rx="19.1029" ry="19.2941" transform="matrix(1 0 0 -1 19.852 19.294)" fill="#1D9BF0"/>
    <g clip-path="url(#clip0_1228_505)">
        <path d="M28.8473 13.4522C28.86 13.6783 28.86 13.9043 28.86 14.1325C28.86 21.0843 24.5498 29.1018 16.6685 29.1018V29.0977C14.3403 29.1018 12.0605 28.283 10.1006 26.7391C10.4391 26.7891 10.7794 26.8141 11.1204 26.8151C13.0498 26.8172 14.9241 26.0223 16.442 24.5586C14.6084 24.5159 13.0006 23.048 12.4389 20.9051C13.0812 21.0572 13.743 21.0259 14.3734 20.8145C12.3745 20.3186 10.9363 18.1621 10.9363 15.6576C10.9363 15.6347 10.9363 15.6128 10.9363 15.591C11.5319 15.9983 12.1988 16.2244 12.881 16.2494C10.9983 14.7044 10.4179 11.6291 11.5548 9.22465C13.7303 12.5115 16.94 14.5096 20.3856 14.7211C20.0403 12.8938 20.512 10.979 21.6252 9.69449C23.3509 7.7026 26.0652 7.8047 27.6874 9.92264C28.647 9.69032 29.5667 9.25798 30.4084 8.64542C30.0885 9.86326 29.4191 10.8977 28.5248 11.5551C29.3741 11.4322 30.2039 11.153 30.9854 10.7269C30.4101 11.7853 29.6855 12.7073 28.8473 13.4522Z" fill="white"/>
    </g>
    <defs>
        <clipPath id="clip0_1228_505">
            <rect width="21.0417" height="21.2523" fill="white" transform="translate(10.1006 8.26489)"/>
        </clipPath>
    </defs>
</svg>
